<?xml version="1.0" encoding="UTF-8"?>
<svg id="Layer_2" data-name="Layer 2" xmlns="http://www.w3.org/2000/svg" viewBox="0 0 167.64 61">
  <defs>
    <style>
      .cls-1 {
        fill: #cd383a;
      }

      .cls-2 {
        fill: #145782;
      }
    </style>
  </defs>
  <g id="Layer_1-2" data-name="Layer 1">
    <g>
      <path class="cls-1" d="M56.72,14.92h-5.92c-4.67-6.09-12.02-10.02-20.3-10.02-14.14,0-25.6,11.46-25.6,25.6,0,2.97.51,5.83,1.45,8.48h36.5v5.25H3.27c-.86-1.67-1.55-3.42-2.07-5.25-.78-2.69-1.2-5.54-1.2-8.48C0,13.66,13.66,0,30.5,0c11.15,0,20.9,5.98,26.22,14.92Z"/>
      <rect class="cls-1" x="8.87" y="28.16" width="43.26" height="5.25"/>
      <path class="cls-2" d="M61,30.5c0,16.85-13.66,30.5-30.5,30.5-10.9,0-20.47-5.72-25.86-14.32h6.02c4.69,5.75,11.84,9.43,19.84,9.43,14.14,0,25.6-11.47,25.6-25.61,0-2.76-.44-5.41-1.25-7.9H17.87v-5.26h40.15c.8,1.67,1.46,3.43,1.94,5.26.68,2.52,1.04,5.17,1.04,7.9Z"/>
    </g>
    <g>
      <g>
        <path class="cls-2" d="M75.04,24.41h3.21v5.07c-1.42,1.58-3.38,2.37-5.88,2.37-2.1,0-3.86-.69-5.28-2.08-1.42-1.39-2.13-3.14-2.13-5.26s.72-3.88,2.18-5.3c1.45-1.42,3.2-2.12,5.25-2.12s3.83.67,5.34,2.02l-1.66,2.39c-.64-.56-1.23-.94-1.77-1.15s-1.12-.32-1.75-.32c-1.21,0-2.23.41-3.06,1.24s-1.25,1.91-1.25,3.26.4,2.43,1.2,3.24c.8.81,1.75,1.22,2.85,1.22s2.02-.21,2.76-.63v-3.92Z"/>
        <path class="cls-2" d="M91.39,17.41v2.84h-7.11v2.94h6.39v2.72h-6.39v2.96h7.33v2.82h-10.52v-14.28h10.3Z"/>
        <path class="cls-2" d="M106.03,22.15c0,2.29-.91,3.77-2.72,4.43l3.62,5.11h-3.92l-3.17-4.56h-2.21v4.56h-3.19v-14.28h5.41c2.22,0,3.8.37,4.75,1.12.95.75,1.42,1.95,1.42,3.62ZM102.19,23.84c.4-.35.59-.92.59-1.69s-.2-1.3-.61-1.58c-.41-.29-1.12-.43-2.14-.43h-2.39v4.23h2.33c1.09,0,1.83-.18,2.23-.53Z"/>
        <path class="cls-2" d="M119.47,31.69l-1.33-3.08h-5.99l-1.33,3.08h-3.39l6.17-14.28h3.08l6.17,14.28h-3.39ZM115.16,21.66l-1.8,4.15h3.58l-1.78-4.15Z"/>
        <path class="cls-2" d="M134.51,17.41h3.19v14.28h-3.19l-6.8-8.95v8.95h-3.19v-14.28h2.98l7.01,9.19v-9.19Z"/>
        <path class="cls-2" d="M144.55,20.26c-.31.25-.46.59-.46,1s.19.75.56.99c.37.25,1.24.53,2.59.87,1.35.33,2.41.83,3.16,1.5.75.67,1.12,1.64,1.12,2.92s-.48,2.32-1.44,3.12c-.96.8-2.22,1.2-3.79,1.2-2.26,0-4.3-.84-6.11-2.51l1.9-2.33c1.54,1.35,2.96,2.02,4.27,2.02.59,0,1.05-.13,1.38-.38s.5-.59.5-1.02-.18-.77-.53-1.02c-.36-.25-1.06-.51-2.1-.77-1.66-.39-2.88-.91-3.65-1.54-.77-.63-1.15-1.63-1.15-2.98s.49-2.4,1.46-3.14,2.19-1.1,3.65-1.1c.95,0,1.91.16,2.86.49s1.78.79,2.49,1.39l-1.61,2.33c-1.24-.94-2.52-1.41-3.84-1.41-.53,0-.95.13-1.26.38Z"/>
        <path class="cls-2" d="M164.25,31.69l-1.33-3.08h-5.99l-1.33,3.08h-3.39l6.17-14.28h3.08l6.17,14.28h-3.39ZM159.94,21.66l-1.8,4.15h3.58l-1.78-4.15Z"/>
      </g>
      <g>
        <path class="cls-2" d="M68.02,37.3c.62,0,1.12.2,1.52.61l.11.11.59-.59-.1-.11c-.5-.55-1.26-.86-2.14-.86-1.74,0-3.05,1.28-3.05,2.97s1.31,2.97,3.05,2.97c.87,0,1.64-.31,2.14-.86l.1-.11-.59-.59-.11.11c-.4.41-.9.62-1.52.62-1.24,0-2.18-.92-2.18-2.13s.94-2.13,2.18-2.13Z"/>
        <path class="cls-2" d="M72.54,37.85c-.69,0-1.34.22-1.79.6l-.1.09.42.69.14-.12c.32-.28.8-.45,1.28-.45.69,0,1.02.31,1.02.94v.1h-1.16c-1.59,0-1.76.93-1.76,1.33,0,.82.67,1.36,1.67,1.36.52,0,.96-.15,1.27-.42v.38h.85v-2.73c0-1.14-.65-1.77-1.84-1.77ZM72.35,41.63c-.27,0-.89-.06-.89-.63,0-.16,0-.59.91-.59h1.15v.49c-.2.47-.6.72-1.16.72Z"/>
        <path class="cls-2" d="M77.89,37.85c-.57,0-1.06.19-1.42.54v-2.22h-.87v6.17h.85v-.53c.37.37.87.56,1.45.56,1.29,0,2.22-.96,2.22-2.27s-.94-2.26-2.22-2.26ZM79.24,40.12c0,.86-.57,1.46-1.39,1.46s-1.39-.6-1.39-1.46.57-1.46,1.39-1.46,1.39.6,1.39,1.46Z"/>
        <path class="cls-2" d="M81.38,36.18c-.31,0-.57.25-.57.55s.25.56.57.56.57-.25.57-.57c0-.3-.25-.54-.57-.54Z"/>
        <rect class="cls-2" x="80.94" y="37.88" width=".87" height="4.46"/>
        <path class="cls-2" d="M85.34,37.85c-.58,0-1.07.18-1.42.51v-.48h-.85v4.46h.87v-2.34c0-.85.47-1.34,1.3-1.34.72,0,1.09.39,1.09,1.17v2.51h.87v-2.56c0-1.21-.7-1.93-1.86-1.93Z"/>
        <path class="cls-2" d="M90.19,37.85c-1.27,0-2.18.95-2.18,2.26s.96,2.27,2.33,2.27c.71,0,1.32-.26,1.72-.73l.09-.1-.52-.6-.12.13c-.28.32-.68.49-1.15.49-.77,0-1.34-.45-1.46-1.13h3.45v-.16s0-.06,0-.09c0-.03,0-.06,0-.08,0-1.31-.91-2.26-2.17-2.26ZM91.49,39.72h-2.59c.12-.65.62-1.07,1.29-1.07s1.17.42,1.3,1.07Z"/>
        <path class="cls-2" d="M95.23,41.42c-.12.11-.31.17-.51.17-.38,0-.56-.2-.56-.6v-2.32h1.26v-.79h-1.26v-.91h-.87v.91h-.74v.79h.74v2.36c0,.85.51,1.36,1.37,1.36.39,0,.74-.12.98-.33l.09-.08-.34-.69-.15.14Z"/>
        <path class="cls-2" d="M101.16,37.3c.62,0,1.12.2,1.52.61l.11.11.59-.59-.1-.11c-.5-.55-1.26-.86-2.14-.86-1.74,0-3.05,1.28-3.05,2.97s1.31,2.97,3.05,2.97c.87,0,1.64-.31,2.14-.86l.1-.11-.59-.59-.11.11c-.4.41-.9.62-1.52.62-1.24,0-2.18-.92-2.18-2.13s.94-2.13,2.18-2.13Z"/>
        <path class="cls-2" d="M105.81,37.85c-1.32,0-2.27.95-2.27,2.26s.96,2.27,2.27,2.27,2.26-.96,2.26-2.27-.95-2.26-2.26-2.26ZM107.2,40.12c0,.86-.57,1.46-1.38,1.46s-1.39-.6-1.39-1.46.57-1.46,1.39-1.46,1.38.6,1.38,1.46Z"/>
        <path class="cls-2" d="M114.24,37.85c-.69,0-1.26.26-1.63.73-.3-.47-.82-.73-1.49-.73-.56,0-1.03.17-1.37.5v-.47h-.85v4.46h.87v-2.34c0-.84.46-1.34,1.23-1.34.69,0,1.05.39,1.05,1.17v2.51h.87v-2.34c0-.85.45-1.34,1.23-1.34.86,0,1.04.64,1.04,1.17v2.51h.87v-2.56c0-1.23-.67-1.93-1.83-1.93Z"/>
        <path class="cls-2" d="M119.58,37.85c-.58,0-1.08.2-1.45.56v-.53h-.85v6h.87v-2.04c.37.35.86.54,1.42.54,1.29,0,2.22-.96,2.22-2.27s-.94-2.26-2.22-2.26ZM120.93,40.12c0,.86-.57,1.46-1.39,1.46s-1.39-.6-1.39-1.46.57-1.46,1.39-1.46,1.39.62,1.39,1.46Z"/>
        <path class="cls-2" d="M124.67,41.42c-.12.11-.31.17-.51.17-.38,0-.56-.2-.56-.6v-2.32h1.26v-.79h-1.26v-.91h-.87v.91h-.74v.79h.74v2.36c0,.85.51,1.36,1.37,1.36.39,0,.74-.12.98-.33l.09-.08-.34-.69-.15.14Z"/>
        <path class="cls-2" d="M127.45,37.85c-.69,0-1.34.22-1.79.6l-.1.09.42.69.14-.12c.32-.28.8-.45,1.28-.45.68,0,1.02.32,1.02.94v.1h-1.16c-1.59,0-1.76.93-1.76,1.33,0,.82.67,1.36,1.67,1.36.52,0,.96-.15,1.27-.42v.38h.85v-2.73c0-1.14-.65-1.77-1.84-1.77ZM127.25,41.63c-.27,0-.89-.06-.89-.63,0-.25.09-.59.91-.59h1.15v.49c-.2.47-.6.72-1.16.72Z"/>
        <path class="cls-2" d="M132.79,37.85c-.57,0-1.06.19-1.42.54v-2.22h-.87v6.17h.85v-.53c.37.37.87.56,1.45.56,1.29,0,2.22-.96,2.22-2.27s-.94-2.26-2.22-2.26ZM134.14,40.12c0,.86-.57,1.46-1.39,1.46s-1.39-.6-1.39-1.46.57-1.46,1.39-1.46,1.39.6,1.39,1.46Z"/>
        <rect class="cls-2" x="135.85" y="36.18" width=".87" height="6.17"/>
        <path class="cls-2" d="M139.74,37.85c-1.27,0-2.18.95-2.18,2.26s.96,2.27,2.33,2.27c.71,0,1.32-.26,1.72-.73l.09-.1-.52-.6-.12.13c-.28.32-.68.49-1.15.49-.77,0-1.34-.45-1.46-1.13h3.45v-.16s0-.06,0-.09c0-.03,0-.06,0-.08,0-1.31-.91-2.26-2.17-2.26ZM141.03,39.72h-2.59c.12-.65.62-1.07,1.29-1.07s1.17.42,1.3,1.07Z"/>
        <path class="cls-2" d="M146.62,36.51l-2.67,5.84h.95l.66-1.48h2.88l.66,1.48h.96l-2.67-5.84h-.78ZM148.09,40.09h-2.17l1.09-2.43,1.09,2.43Z"/>
        <path class="cls-2" d="M153.73,38.41c-.37-.36-.9-.55-1.49-.55-1.3,0-2.24.91-2.24,2.16s.94,2.18,2.24,2.18c.58,0,1.09-.19,1.46-.54v.11c0,.95-.41,1.35-1.38,1.35-.59,0-1.16-.2-1.53-.53l-.13-.12-.46.69.1.09c.45.43,1.22.68,2.04.68,1.48,0,2.23-.75,2.23-2.23v-3.8h-.85v.52ZM153.73,40.01c0,.81-.59,1.37-1.42,1.37s-1.42-.56-1.42-1.37.58-1.36,1.42-1.36,1.42.56,1.42,1.36Z"/>
        <path class="cls-2" d="M156.69,38.36v-.47h-.85v4.46h.87v-2.27c0-.87.45-1.38,1.24-1.38.01,0,.03,0,.05,0,.03,0,.06,0,.09,0h.16v-.86h-.16c-.6,0-1.07.17-1.4.5Z"/>
        <polygon class="cls-2" points="162.45 36.27 161.18 36.27 159.75 37.56 160.76 37.56 162.45 36.27"/>
        <path class="cls-2" d="M160.67,37.85c-1.27,0-2.18.95-2.18,2.26s.96,2.27,2.33,2.27c.71,0,1.32-.26,1.72-.73l.09-.1-.52-.6-.12.14c-.28.32-.68.49-1.15.49-.77,0-1.34-.45-1.46-1.13h3.45v-.16s0-.06,0-.09c0-.03,0-.06,0-.08,0-1.31-.91-2.26-2.17-2.26ZM161.97,39.72h-2.59c.13-.65.63-1.07,1.29-1.07s1.17.42,1.3,1.07Z"/>
        <polygon class="cls-2" points="167.21 36.27 165.95 36.27 164.52 37.56 165.53 37.56 167.21 36.27"/>
        <path class="cls-2" d="M165.44,37.85c-1.27,0-2.18.95-2.18,2.26s.96,2.27,2.33,2.27c.71,0,1.32-.26,1.72-.73l.09-.1-.52-.6-.12.14c-.28.32-.68.49-1.15.49-.77,0-1.33-.45-1.46-1.13h3.45v-.16s0-.06,0-.09c0-.03,0-.06,0-.09,0-1.31-.91-2.26-2.17-2.26ZM166.73,39.72h-2.59c.13-.65.63-1.07,1.29-1.07s1.17.42,1.3,1.07Z"/>
      </g>
    </g>
  </g>
</svg>